<?xml version="1.0" encoding="UTF-8"?>
<svg version="1.1" xmlns="http://www.w3.org/2000/svg" width="163" height="156">
<path d="M0 0 C2.52726683 2.19029792 4.50012869 4.00025739 6 7 C6.10122783 8.63348644 6.139441 10.27105206 6.14717102 11.90765381 C6.15432632 12.94508728 6.16148163 13.98252075 6.16885376 15.0513916 C6.17154266 16.19426636 6.17423157 17.33714111 6.17700195 18.51464844 C6.18357315 19.71474548 6.19014435 20.91484253 6.19691467 22.15130615 C6.21668461 26.1373316 6.22831876 30.12331677 6.23828125 34.109375 C6.2423288 35.48181427 6.24644572 36.85425334 6.25063133 38.2266922 C6.26968574 44.67557269 6.28391529 51.12444172 6.2922433 57.57334495 C6.30201208 65.01498586 6.32832078 72.45632904 6.36874419 79.89786506 C6.39892119 85.65082034 6.41371373 91.40369037 6.41702431 97.15672326 C6.41937338 100.59210174 6.42831411 104.02716225 6.45348549 107.46245575 C6.48113242 111.29765814 6.47693019 115.13247015 6.4699707 118.96777344 C6.48278076 120.10255127 6.49559082 121.2373291 6.50878906 122.40649414 C6.46802307 128.56331149 6.20769106 132.3579207 2 137 C-0.79543123 138.69197153 -2.5582786 138.99018397 -5.8125 139.0625 C-13.26681041 136.57772986 -18.69285869 129.31278552 -23.7890625 123.5703125 C-38.06071533 106.12669122 -38.06071533 106.12669122 -57.68896484 97.62451172 C-61.14207551 97.77866309 -64.47090203 98.22056664 -67.87060547 98.83007812 C-71.57871059 99.12597828 -73.80425393 97.82845218 -77 96 C-79.92191385 93.48427148 -81.77422409 90.67732774 -83 87 C-83.12078288 84.33893349 -83.18810449 81.70485597 -83.203125 79.04296875 C-83.20882507 78.26238602 -83.21452515 77.48180328 -83.22039795 76.67756653 C-83.2298395 75.02586214 -83.23637858 73.37413898 -83.24023438 71.72241211 C-83.24992418 69.20718113 -83.28094801 66.69277309 -83.3125 64.17773438 C-83.31903214 62.57031733 -83.32428178 60.96289447 -83.328125 59.35546875 C-83.3404718 58.60839157 -83.3528186 57.86131439 -83.36553955 57.09159851 C-83.34237686 51.60705522 -82.22140712 47.49389973 -78.53515625 43.35546875 C-73.97547259 39.73916792 -71.18854991 38.73883407 -65.48461914 39.33178711 C-57.03761123 39.85626299 -49.72937351 39.85997934 -42.81201172 34.48486328 C-37.64818438 29.85766535 -33.0405704 24.73757482 -28.4375 19.5625 C-26.00939368 16.93925863 -23.56618783 14.33099787 -21.11769104 11.72679138 C-19.61073829 10.11294814 -18.11848594 8.48521495 -16.64341736 6.84217834 C-15.97403641 6.10478928 -15.30465546 5.36740021 -14.61499023 4.60766602 C-13.74522804 3.63290062 -13.74522804 3.63290062 -12.8578949 2.63844299 C-8.80710668 -0.93387187 -5.11057884 -1.59705589 0 0 Z M-10.35287476 20.24607849 C-10.92784698 20.82930374 -11.50281921 21.41252899 -12.09521484 22.01342773 C-13.07160416 22.99961342 -13.07160416 22.99961342 -14.06771851 24.00572205 C-14.77498077 24.72441971 -15.48224304 25.44311737 -16.2109375 26.18359375 C-17.69777697 27.68308124 -19.18476065 29.18242574 -20.671875 30.68164062 C-23.0263801 33.06097916 -25.37928968 35.44185062 -27.72949219 37.82543945 C-29.98977408 40.1158616 -32.25617535 42.40008407 -34.5234375 44.68359375 C-35.22665131 45.40026718 -35.92986511 46.11694061 -36.65438843 46.85533142 C-37.64023422 47.84624535 -37.64023422 47.84624535 -38.64599609 48.85717773 C-39.51084122 49.733209 -39.51084122 49.733209 -40.39315796 50.62693787 C-43.46242746 53.24965847 -46.67988741 53.17332916 -50.54296875 53.31640625 C-51.51000732 53.35451416 -52.4770459 53.39262207 -53.47338867 53.43188477 C-54.69904541 53.47498779 -55.92470215 53.51809082 -57.1875 53.5625 C-61.085625 53.706875 -64.98375 53.85125 -69 54 C-69 63.9 -69 73.8 -69 84 C-61.37219329 84.17009594 -61.37219329 84.17009594 -53.74365234 84.29785156 C-52.78410645 84.3284668 -51.82456055 84.35908203 -50.8359375 84.390625 C-49.86188965 84.41157227 -48.8878418 84.43251953 -47.88427734 84.45410156 C-41.09085334 85.73987235 -36.53711162 91.20211859 -31.88671875 95.953125 C-31.23169876 96.61334656 -30.57667877 97.27356812 -29.90180969 97.95379639 C-27.82552259 100.04779642 -25.7561021 102.14841007 -23.6875 104.25 C-21.60014363 106.36494469 -19.5113458 108.47841492 -17.41963196 110.58905029 C-16.12145756 111.89951951 -14.82596505 113.21265174 -13.53337097 114.52862549 C-12.0409533 116.03781393 -10.52312625 117.52180966 -9 119 C-8.67 119 -8.34 119 -8 119 C-8 86 -8 53 -8 19 C-9.18395765 18.8870869 -9.18395765 18.8870869 -10.35287476 20.24607849 Z " fill="#B197FC" transform="translate(87,13)"/>
<path d="M0 0 C8.31605965 2.52270712 14.29728328 11.6990933 18.5625 18.77734375 C26.73521085 35.97107215 27.24393821 51.86038993 21.5625 69.77734375 C17.75514485 79.61082308 10.72762832 90.18841256 1.5625 95.77734375 C-1.79117511 96.14549154 -2.95418601 96.1169698 -5.75 94.15234375 C-7.4375 91.77734375 -7.4375 91.77734375 -8.125 89.02734375 C-7.07679988 84.07221593 -3.83789011 81.38983063 -0.4375 77.77734375 C8.7570901 67.04671624 11.37378299 55.65181617 10.74169922 41.81201172 C9.72592041 30.2786322 3.21042035 20.87242169 -5.01953125 13.1875 C-7.10959897 11.10894781 -7.42731573 9.85542318 -7.8125 6.90234375 C-7.4375 3.77734375 -7.4375 3.77734375 -5.25 1.33984375 C-2.4375 -0.22265625 -2.4375 -0.22265625 0 0 Z " fill="#B197FC" transform="translate(137.4375,34.22265625)"/>
<path d="M0 0 C5.90205567 3.83445655 8.67955232 10.15274595 10.37109375 16.7578125 C11.93930647 24.91251864 10.60943523 32.60030846 6.29296875 39.76171875 C3.70683936 43.32622895 1.58160944 45.77992371 -2.28515625 47.9453125 C-5.16015625 48.1953125 -5.16015625 48.1953125 -7.97265625 47.2578125 C-10.16015625 45.1953125 -10.16015625 45.1953125 -11.34765625 42.0078125 C-11.11560471 37.28943125 -9.60965311 35.48542513 -6.60546875 31.9921875 C-3.9931156 28.74439709 -3.82609179 25.39689575 -3.87109375 21.32421875 C-4.45115266 17.0521633 -6.69892764 13.4999809 -9.91015625 10.6328125 C-11.16015625 9.1953125 -11.16015625 9.1953125 -11.53515625 6.2578125 C-11.12339713 2.89511305 -10.53278981 1.56794606 -8.16015625 -0.8046875 C-4.71797477 -1.95208133 -3.2333062 -1.51753484 0 0 Z " fill="#B197FC" transform="translate(122.16015625,58.8046875)"/>
</svg>
