<?xml version="1.0" encoding="UTF-8"?>
<!DOCTYPE svg PUBLIC "-//W3C//DTD SVG 1.1//EN" "http://www.w3.org/Graphics/SVG/1.1/DTD/svg11.dtd">
<svg xmlns="http://www.w3.org/2000/svg" version="1.1" width="203px" height="209px" style="shape-rendering:geometricPrecision; text-rendering:geometricPrecision; image-rendering:optimizeQuality; fill-rule:evenodd; clip-rule:evenodd" xmlns:xlink="http://www.w3.org/1999/xlink">
<g><path style="opacity:1" fill="#fefefe" d="M -0.5,-0.5 C 67.1667,-0.5 134.833,-0.5 202.5,-0.5C 202.5,69.1667 202.5,138.833 202.5,208.5C 134.833,208.5 67.1667,208.5 -0.5,208.5C -0.5,138.833 -0.5,69.1667 -0.5,-0.5 Z"/></g>
<g><path style="opacity:1" fill="#b197fc" d="M 95.5,29.5 C 102.128,28.231 106.961,30.5644 110,36.5C 110.667,78.5 110.667,120.5 110,162.5C 106.23,169.414 100.73,171.247 93.5,168C 80.8333,155.333 68.1667,142.667 55.5,130C 47.1667,129.667 38.8333,129.333 30.5,129C 25.5723,127.073 22.4056,123.573 21,118.5C 20.3333,105.5 20.3333,92.5 21,79.5C 22.8333,75 26,71.8333 30.5,70C 38.8333,69.6667 47.1667,69.3333 55.5,69C 68.7284,55.6042 82.0617,42.4375 95.5,29.5 Z"/></g>
<g><path style="opacity:1" fill="#efeafd" d="M 93.5,52.5 C 93.56,51.9569 93.8933,51.6236 94.5,51.5C 95.8333,83.5 95.8333,115.5 94.5,147.5C 93.8933,147.376 93.56,147.043 93.5,146.5C 94.8333,115.167 94.8333,83.8333 93.5,52.5 Z"/></g>
<g><path style="opacity:1" fill="#b298fc" d="M 149.5,51.5 C 152.187,51.3359 154.854,51.5026 157.5,52C 183.085,75.0742 187.585,101.908 171,132.5C 167.526,138.273 163.026,143.107 157.5,147C 149.381,148.875 145.548,145.708 146,137.5C 168.199,117.622 171.199,95.2885 155,70.5C 152.333,67.8333 149.667,65.1667 147,62.5C 145.812,58.2586 146.645,54.5919 149.5,51.5 Z"/></g>
<g><path style="opacity:1" fill="#fefdfe" d="M 93.5,52.5 C 94.8333,83.8333 94.8333,115.167 93.5,146.5C 82.7016,136.202 72.0349,125.702 61.5,115C 52.8397,114.5 44.1731,114.334 35.5,114.5C 35.5,104.5 35.5,94.5 35.5,84.5C 44.1731,84.6664 52.8397,84.4998 61.5,84C 72.0349,73.2979 82.7016,62.7979 93.5,52.5 Z"/></g>
<g><path style="opacity:1" fill="#b298fc" d="M 131.5,74.5 C 137.402,74.0347 141.902,76.3681 145,81.5C 153.974,97.3556 151.807,111.522 138.5,124C 129.21,125.622 125.71,121.789 128,112.5C 137.99,103.543 137.99,94.5425 128,85.5C 126.518,80.774 127.685,77.1074 131.5,74.5 Z"/></g>
</svg>
