<?xml version="1.0" encoding="UTF-8"?>
<svg version="1.1" xmlns="http://www.w3.org/2000/svg" width="800" height="800">
<path d="M0 0 C0.80223495 -0.00974854 1.60446991 -0.01949707 2.43101501 -0.02954102 C28.15259907 -0.27744646 52.60285254 1.55100746 77.3203125 9.23828125 C78.47926025 9.59116211 78.47926025 9.59116211 79.66162109 9.95117188 C110.86406256 19.61863586 139.10752004 36.09642011 163.08203125 58.1875 C165.18327869 60.11272671 167.33350556 61.95906428 169.5078125 63.80078125 C173.51553005 67.30453432 176.91035675 71.16039603 180.3203125 75.23828125 C181.42826172 76.51445312 181.42826172 76.51445312 182.55859375 77.81640625 C191.79261289 88.59679223 200.14880404 100.0557874 207.1328125 112.42578125 C207.51219971 113.08167236 207.89158691 113.73756348 208.2824707 114.41333008 C210.09820522 117.64536161 211.37769938 120.43820973 212.41015625 124.03515625 C213.73982891 128.20773173 214.92008743 131.4383112 218.3203125 134.23828125 C224.4922297 137.13477027 231.11171261 138.74502044 237.6756897 140.50379944 C238.32411835 140.67785812 238.972547 140.85191681 239.640625 141.03125 C240.29139008 141.20567123 240.94215515 141.38009247 241.61264038 141.55979919 C251.77304531 144.36871208 261.07463155 149.26155244 270.3203125 154.23828125 C271.03848145 154.62483887 271.75665039 155.01139648 272.49658203 155.40966797 C315.08873883 178.78530042 348.26133593 219.92742448 362.00390625 266.5 C372.46687993 303.41337115 372.46687993 303.41337115 366.2578125 315.36328125 C361.45270672 322.41615359 355.6990588 326.49573436 347.3203125 328.23828125 C340.56365328 329.17202302 334.18470172 327.58479414 328.37109375 324.0546875 C319.91512259 317.57972477 317.59112571 307.54816271 315.8203125 297.55078125 C310.75564216 271.5477809 300.55430155 248.82501867 282.328125 229.421875 C280.3203125 227.23828125 280.3203125 227.23828125 278.28125 224.6640625 C265.65547259 209.04532192 245.0528569 197.7593772 226.3203125 191.23828125 C225.69044434 191.01688477 225.06057617 190.79548828 224.41162109 190.56738281 C215.73008419 187.56554142 207.01245816 185.36515678 197.96582031 183.75732422 C190.09848353 182.27014378 183.73803392 179.7629354 178.67431641 173.33544922 C176.03782146 169.25187699 174.31335046 164.79699033 172.5078125 160.30078125 C163.86845217 139.67547275 152.38435656 121.77269133 137.3203125 105.23828125 C136.60319092 104.45106689 136.60319092 104.45106689 135.87158203 103.64794922 C105.24237667 70.51625472 60.18685821 53.09770712 15.69873047 51.29296875 C-0.97290944 51.02309974 -17.62358567 52.71316538 -33.6796875 57.23828125 C-34.67452148 57.50680908 -34.67452148 57.50680908 -35.68945312 57.78076172 C-57.41369909 63.70892134 -78.18867888 74.05449396 -95.6796875 88.23828125 C-96.21190918 88.66898926 -96.74413086 89.09969727 -97.29248047 89.54345703 C-132.81239465 118.45743821 -156.64973009 160.44652365 -161.6796875 206.23828125 C-161.83058705 208.27643114 -161.96788027 210.31562012 -162.09375 212.35546875 C-162.19683472 213.94174072 -162.19683472 213.94174072 -162.30200195 215.56005859 C-162.42520363 217.61890253 -162.52425168 219.67939186 -162.59448242 221.74072266 C-163.06573363 229.92329476 -165.7031261 236.46468771 -171.73168945 242.18554688 C-179.12365352 248.27293409 -187.03339131 248.54568964 -196.2421875 249.11328125 C-205.59008328 249.80813799 -213.85591473 250.94092263 -222.6796875 254.23828125 C-223.3504834 254.4820752 -224.0212793 254.72586914 -224.71240234 254.97705078 C-234.57331169 258.60182949 -243.20771219 262.9282937 -251.6796875 269.23828125 C-252.46601563 269.80289062 -253.25234375 270.3675 -254.0625 270.94921875 C-264.58453084 278.75825209 -272.80815747 288.13019228 -279.6796875 299.23828125 C-280.03305176 299.80643555 -280.38641602 300.37458984 -280.75048828 300.95996094 C-295.59907219 325.36727791 -298.96544453 354.60714098 -292.6796875 382.23828125 C-288.09594011 399.70617859 -279.53408579 416.83380621 -266.41796875 429.40625 C-264.6796875 431.23828125 -264.6796875 431.23828125 -264.6796875 433.23828125 C-264.11765625 433.48449219 -263.555625 433.73070312 -262.9765625 433.984375 C-260.27606333 435.4586271 -258.23939056 437.26723834 -255.9296875 439.30078125 C-245.5089874 447.92912093 -233.49894959 453.99315912 -220.6796875 458.23828125 C-219.83921875 458.53347656 -218.99875 458.82867188 -218.1328125 459.1328125 C-202.39118262 464.09484801 -184.84682858 463.53338065 -168.51831055 463.50952148 C-166.48733311 463.51392271 -164.45635747 463.51922986 -162.42538452 463.52536011 C-158.09807424 463.53674383 -153.77081216 463.54231077 -149.44348717 463.5432415 C-142.59711225 463.54520144 -135.75083589 463.56335352 -128.90449524 463.58399963 C-111.92032586 463.63290261 -94.93613038 463.6641281 -77.9519043 463.68530273 C-64.70612868 463.70182997 -51.46043957 463.72460577 -38.21472198 463.76832348 C-31.41089325 463.79007109 -24.60722907 463.79816077 -17.80336797 463.79593074 C-13.57908726 463.79759721 -9.35491443 463.81164162 -5.13067245 463.82914352 C-3.17434663 463.83474111 -1.21799844 463.83523003 0.73832893 463.83020592 C3.41066348 463.82406221 6.08231753 463.83629947 8.7545929 463.85301208 C9.52598691 463.84680027 10.29738092 463.84058845 11.09215051 463.8341884 C18.76756381 463.92152612 25.79915132 466.80892085 31.3203125 472.23828125 C36.82748539 479.53493853 37.47508252 487.34973035 36.3203125 496.23828125 C35.38762022 499.26361307 34.13534761 501.65703755 32.3203125 504.23828125 C31.7221875 505.14578125 31.1240625 506.05328125 30.5078125 506.98828125 C25.68282797 511.95112248 20.255202 514.13999674 13.39572716 514.36970901 C11.76199425 514.37782033 10.1282285 514.38040091 8.49447632 514.37872314 C7.59312663 514.38169427 6.69177694 514.38466539 5.76311362 514.38772655 C2.73578384 514.3964138 -0.29150639 514.39792188 -3.31884766 514.39941406 C-5.4872496 514.40404254 -7.65565073 514.40906724 -9.8240509 514.41445923 C-15.72359451 514.42759004 -21.62312673 514.43403056 -27.52268267 514.43846989 C-31.2134202 514.44140202 -34.90415463 514.44550729 -38.59489059 514.44997406 C-50.15569565 514.46365629 -61.71649361 514.47331706 -73.2773062 514.47717595 C-74.5944182 514.47761804 -75.9115302 514.47806014 -77.26855469 514.47851562 C-77.92847819 514.47873705 -78.58840169 514.47895848 -79.26832287 514.47918662 C-90.58935278 514.48336695 -101.91029807 514.50349642 -113.23130381 514.52817655 C-123.53901362 514.54986184 -133.84669457 514.55988402 -144.15442693 514.56121707 C-150.30303054 514.56226102 -156.45153727 514.56808009 -162.60011673 514.58603668 C-168.39659578 514.60263395 -174.19290638 514.60461679 -179.98940086 514.59589767 C-182.10397356 514.59513326 -184.21855574 514.59939024 -186.33310509 514.60935593 C-202.2101309 514.67972328 -217.47481643 513.41716575 -232.8046875 508.98828125 C-233.53856689 508.77921143 -234.27244629 508.5701416 -235.02856445 508.35473633 C-242.89743361 506.01698805 -250.3116482 502.83372032 -257.6796875 499.23828125 C-258.31503418 498.93019531 -258.95038086 498.62210938 -259.60498047 498.3046875 C-272.50561426 491.96130011 -283.98815449 484.07272218 -294.5078125 474.2578125 C-296.41173355 472.48743987 -298.35859901 470.82442357 -300.3671875 469.17578125 C-304.22993357 465.86998926 -307.46134882 462.16530461 -310.6796875 458.23828125 C-311.43121094 457.3359375 -312.18273437 456.43359375 -312.95703125 455.50390625 C-339.80703914 422.07925188 -351.04451332 379.54077435 -346.73217773 337.11791992 C-342.8279431 303.63099384 -327.57588848 267.64919751 -302.6796875 244.23828125 C-302.0196875 244.23828125 -301.3596875 244.23828125 -300.6796875 244.23828125 C-300.6796875 243.57828125 -300.6796875 242.91828125 -300.6796875 242.23828125 C-280.36596895 219.91991942 -247.03228789 204.26665151 -217.6796875 199.23828125 C-216.01357894 199.1951531 -214.34534597 199.18031878 -212.6796875 199.23828125 C-212.52113281 197.94277344 -212.36257812 196.64726562 -212.19921875 195.3125 C-206.05773931 147.55298618 -185.0261785 100.56710786 -149.6796875 67.23828125 C-148.8340625 66.39265625 -147.9884375 65.54703125 -147.1171875 64.67578125 C-146.3128125 63.87140625 -145.5084375 63.06703125 -144.6796875 62.23828125 C-144.19113281 61.70332031 -143.70257813 61.16835937 -143.19921875 60.6171875 C-136.19134408 53.17615501 -127.9058898 47.24793212 -119.6796875 41.23828125 C-119.0727002 40.79194336 -118.46571289 40.34560547 -117.84033203 39.88574219 C-84.49101863 15.65752756 -41.39412024 0.42202534 0 0 Z " fill="#FEFEFE" transform="translate(388.6796875,144.76171875)"/>
<path d="M0 0 C3.34137144 1.87518074 5.75398598 4.60715905 8.4375 7.3125 C9.99479389 8.86029913 11.55297813 10.40720285 13.11195374 11.95330811 C14.02177505 12.85590363 14.93159637 13.75849915 15.86898804 14.68844604 C16.35318081 15.16876156 16.83737358 15.64907707 17.33623886 16.1439476 C28.53167052 27.25056255 39.71243541 38.37184992 50.88526249 49.50120163 C57.33936454 55.92951069 63.79810465 62.35302922 70.26782227 68.765625 C75.92427801 74.37216604 81.5718187 79.9875116 87.20893854 85.61349607 C90.18832577 88.58638475 93.17190337 91.55476541 96.16624641 94.51259613 C98.98351063 97.29577611 101.78865595 100.09062813 104.58518028 102.89464188 C105.60954355 103.91763678 106.63815524 104.9363992 107.67142487 105.95039749 C114.1981078 112.36132547 119.32346728 118.08702303 120.96875 127.28125 C120.87222377 135.09987454 118.79897309 140.46417348 114.75 147.0625 C109.43622173 152.23266265 102.72497775 155.42437738 95.3125 155.625 C78.89776917 155.36616062 67.97460589 139.99558792 57.2109375 129.18359375 C55.96991651 127.94070288 54.728671 126.69803616 53.48721313 125.45558167 C50.25303685 122.21762502 47.02187742 118.9766747 43.79138184 115.73504639 C40.48126212 112.41461509 37.16823608 109.0970863 33.85546875 105.77929688 C27.37999848 99.29316853 20.90771828 92.80386717 14.4375 86.3125 C14.43603344 87.39256317 14.43456688 88.47262634 14.43305588 89.5854187 C14.39645875 115.86734151 14.33700626 142.14913691 14.25359726 168.43095398 C14.21379022 181.14065767 14.18140613 193.85029929 14.16650391 206.56005859 C14.15349609 217.63805634 14.12655348 228.71591761 14.08288693 239.7938385 C14.06025277 245.65937258 14.04459051 251.5247382 14.04561615 257.39031982 C14.04636159 262.9126809 14.02845693 268.43466931 13.99633217 273.95693398 C13.98782283 275.98215345 13.98609024 278.00741468 13.99169731 280.03264427 C13.99834304 282.80222641 13.98040281 285.57062488 13.95648193 288.34008789 C13.96424235 289.13777525 13.97200277 289.93546261 13.97999835 290.75732231 C13.87942849 297.35437977 11.85247034 302.49918404 7.54296875 307.51953125 C0.55078781 313.37245664 -5.25463852 315.99611084 -14.5 315.71875 C-22.57171498 314.6480123 -28.23595484 310.48239464 -33.2265625 304.2265625 C-37.71967537 297.7890616 -37.71117534 290.42019483 -37.72071838 282.80838013 C-37.72812535 281.54499795 -37.72812535 281.54499795 -37.73568195 280.25609291 C-37.75100592 277.44172662 -37.75940372 274.62738306 -37.76782227 271.81298828 C-37.7774048 269.7924225 -37.7874151 267.77185871 -37.79782104 265.751297 C-37.82483548 260.27043488 -37.84586379 254.78956417 -37.86582303 249.30867243 C-37.88770393 243.57912797 -37.91508233 237.84960986 -37.94187927 232.12008667 C-37.9917777 221.27239012 -38.03672711 210.42467893 -38.07990164 199.57695377 C-38.12929836 187.22636714 -38.18420747 174.87580695 -38.23958123 162.5252459 C-38.35335752 137.12102194 -38.46020605 111.71677261 -38.5625 86.3125 C-39.35461884 87.1179425 -40.14673767 87.92338501 -40.96286011 88.75323486 C-48.44906229 96.36134579 -55.95126918 103.95335141 -63.46922112 111.53009415 C-67.33329512 115.42540981 -71.19161825 119.32607722 -75.03710938 123.23974609 C-78.75210736 127.02018848 -82.48179684 130.78555672 -86.22189713 134.54116058 C-87.64244911 135.97275366 -89.05773163 137.40959652 -90.46746445 138.85184479 C-106.18535429 154.91751448 -106.18535429 154.91751448 -118.5625 155.8125 C-126.064421 155.43563741 -132.32272538 153.0878267 -137.5 147.5625 C-142.88954308 140.67303691 -144.57063193 133.99345776 -143.5625 125.3125 C-141.37985155 116.27456605 -135.74504651 110.6690586 -129.27368164 104.3425293 C-128.21588828 103.28643155 -127.15942064 102.22900456 -126.10417175 101.17036438 C-123.25380037 98.3182811 -120.38539223 95.48500178 -117.5132401 92.65487647 C-114.50187497 89.68122712 -111.50768996 86.69037669 -108.51158142 83.70137024 C-102.838288 78.04668242 -97.14989081 72.40744822 -91.45581287 66.77369863 C-84.99125357 60.37616492 -78.5436753 53.96163393 -72.09751332 47.54557168 C-61.07613186 36.57623269 -50.0423337 25.61951744 -38.99398804 14.67733765 C-38.08416672 13.77618729 -37.1743454 12.87503693 -36.23695374 11.94657898 C-35.45032884 11.16774699 -34.66370394 10.388915 -33.85324192 9.58648205 C-32.18846766 7.93388786 -30.53157048 6.27334679 -28.8794775 4.60807514 C-21.36527691 -2.83671536 -9.6947541 -4.50704887 0 0 Z " fill="#FEFEFE" transform="translate(637.5625,476.6875)"/>
</svg>
