<?xml version="1.0" encoding="UTF-8"?>
<svg version="1.1" xmlns="http://www.w3.org/2000/svg" width="163" height="156">
<path d="M0 0 C1.28907761 -0.00131424 2.57815521 -0.00262848 3.90629578 -0.00398254 C7.40669461 -0.00654229 10.90426074 0.04598423 14.40400672 0.10918307 C18.07402266 0.16583405 21.74411928 0.17076179 25.414505 0.18141174 C32.34920472 0.20927259 39.28261203 0.28297026 46.2167452 0.37355715 C54.11751294 0.47450901 62.01834574 0.52372621 69.91959894 0.56881607 C86.15849761 0.66263396 102.39609994 0.82071154 118.6340332 1.02172852 C118.6340332 1.68172852 118.6340332 2.34172852 118.6340332 3.02172852 C119.3765332 3.26922852 120.1190332 3.51672852 120.8840332 3.77172852 C126.70722364 6.41863326 128.54994626 10.42015992 130.77524948 16.15239334 C132.2397608 21.04556227 132.20711871 25.81531454 132.18334961 30.89038086 C132.19357147 32.03324051 132.20379333 33.17610016 132.21432495 34.35359192 C132.2419655 38.10516722 132.24021517 41.85600143 132.2355957 45.60766602 C132.2433778 48.23263824 132.25204882 50.85760796 132.26156616 53.48257446 C132.27794018 58.97485853 132.27621119 64.46693658 132.26538086 69.95922852 C132.25330811 76.27952838 132.27792266 82.59893701 132.320521 88.91908491 C132.36019668 95.03379774 132.36607773 101.1480982 132.35905075 107.26292801 C132.3600732 109.84874183 132.37047376 112.43457051 132.39067459 115.02030563 C132.41552412 118.64565211 132.40175219 122.26896981 132.37866211 125.89428711 C132.39394958 126.94817123 132.40923706 128.00205536 132.42498779 129.08787537 C132.29898189 138.0998299 129.76576534 145.68489207 123.46171188 152.30188656 C116.92251917 157.52699431 110.98925787 157.99448797 102.84057617 157.81640625 C101.60041245 157.81742844 100.36024872 157.81845062 99.08250427 157.81950378 C95.71216273 157.81548826 92.34489689 157.78061918 88.97509909 157.73148608 C85.44248791 157.6874499 81.90982695 157.68359339 78.37698364 157.67530823 C71.7010178 157.65363173 65.02586329 157.59629993 58.35025322 157.5258618 C50.74447704 157.44736704 43.13866019 157.40906915 35.53257918 157.37399375 C19.89926218 157.30100818 4.26675269 157.17804336 -11.3659668 157.02172852 C-11.3659668 156.36172852 -11.3659668 155.70172852 -11.3659668 155.02172852 C-12.47391602 154.86704102 -12.47391602 154.86704102 -13.60424805 154.70922852 C-16.63261189 153.9553501 -18.17291384 153.01089462 -20.5534668 151.02172852 C-21.22764648 150.48547852 -21.90182617 149.94922852 -22.59643555 149.39672852 C-27.38279314 142.97265475 -26.65379473 133.86694345 -26.62475586 126.21899414 C-26.6282605 125.07146164 -26.63176514 123.92392914 -26.63537598 122.74162292 C-26.64413661 118.97034553 -26.63836408 115.19925763 -26.6315918 111.42797852 C-26.63294007 108.79439254 -26.63488196 106.16080681 -26.63739014 103.52722168 C-26.64101832 98.01641815 -26.63626094 92.5056684 -26.62670898 86.99487305 C-26.61582663 80.64359619 -26.61935302 74.29244778 -26.6303618 67.94117403 C-26.64056671 61.80571079 -26.63944163 55.67030403 -26.63359833 49.53483582 C-26.63226754 46.93539919 -26.6338895 44.33595927 -26.63855743 41.73652649 C-26.64365645 38.09908458 -26.63586479 34.4618867 -26.62475586 30.82446289 C-26.62880432 29.75822189 -26.63285278 28.6919809 -26.63702393 27.59342957 C-26.62086895 24.72703118 -26.52374063 21.88353671 -26.3659668 19.02172852 C-26.32846943 17.82704704 -26.32846943 17.82704704 -26.29021454 16.60823059 C-25.69929926 11.32416353 -23.45036138 8.60870852 -19.57633972 5.02308655 C-13.13354909 0.21464545 -7.8532331 -0.21268966 0 0 Z M-9.3659668 19.02172852 C-9.67261662 21.1863038 -9.67261662 21.1863038 -9.62666321 23.7217865 C-9.63374802 24.71307053 -9.64083282 25.70435455 -9.64813232 26.72567749 C-9.64565491 27.81716095 -9.64317749 28.90864441 -9.640625 30.03320312 C-9.64573593 31.17959763 -9.65084686 32.32599213 -9.65611267 33.50712585 C-9.67006146 37.31282714 -9.66904792 41.1183484 -9.66674805 44.92407227 C-9.67063205 47.55961678 -9.6749661 50.19516067 -9.67973328 52.83070374 C-9.6879534 58.36143603 -9.68703348 63.89211726 -9.68164062 69.42285156 C-9.67559987 75.81901865 -9.68791222 82.21496581 -9.70921069 88.61109537 C-9.72893416 94.75992067 -9.73200241 100.90864295 -9.72847557 107.05749702 C-9.72899035 109.67585326 -9.73425729 112.2942129 -9.74428749 114.91254997 C-9.75657387 118.56882723 -9.74990678 122.22459082 -9.73828125 125.88085938 C-9.74592499 126.9703186 -9.75356873 128.05977783 -9.76144409 129.18225098 C-9.75442978 130.17635483 -9.74741547 131.17045868 -9.7401886 132.19468689 C-9.74035634 133.05949645 -9.74052408 133.92430601 -9.74069691 134.81532192 C-9.51696941 137.06879988 -9.51696941 137.06879988 -8.14426804 138.80002975 C-5.81344554 140.40131242 -4.35823116 140.39649716 -1.53892517 140.39595032 C-0.04776939 140.40647179 -0.04776939 140.40647179 1.47351074 140.41720581 C3.10769958 140.4057402 3.10769958 140.4057402 4.77490234 140.39404297 C5.92304916 140.39769363 7.07119598 140.4013443 8.25413513 140.40510559 C12.05930246 140.41322917 15.86404639 140.39958632 19.66918945 140.38500977 C22.30569966 140.38449141 24.94221027 140.38500815 27.57872009 140.38652039 C33.10770757 140.38740337 38.63657243 140.37632103 44.16552734 140.35791016 C50.56226793 140.33673193 56.95882901 140.33323481 63.35559756 140.33947212 C69.50496468 140.34516167 75.6542583 140.33942154 81.80361748 140.32829857 C84.42279238 140.32443869 87.04197271 140.3233016 89.66114998 140.32488441 C93.31505897 140.32525359 96.96869103 140.31267663 100.62255859 140.29638672 C102.25978378 140.30010284 102.25978378 140.30010284 103.93008423 140.30389404 C104.92136826 140.29680923 105.91265228 140.28972443 106.93397522 140.28242493 C107.79840775 140.28037206 108.66284029 140.27831919 109.55346775 140.27620411 C111.85492646 140.2115214 111.85492646 140.2115214 113.6340332 138.02172852 C113.93784115 135.85702919 113.93784115 135.85702919 113.88800049 133.32167053 C113.89364014 132.33038651 113.89927979 131.33910248 113.90509033 130.31777954 C113.90104187 129.22629608 113.89699341 128.13481262 113.89282227 127.01025391 C113.8963269 125.86385941 113.89983154 124.7174649 113.90344238 123.53633118 C113.91227558 119.73062154 113.90640447 115.92509643 113.8996582 112.11938477 C113.90100449 109.48384058 113.90294471 106.84829663 113.90545654 104.2127533 C113.90909802 98.68201687 113.9042929 93.1513338 113.89477539 87.62060547 C113.88389583 81.22448065 113.887412 74.82848338 113.8984282 68.43236166 C113.90859508 62.28354388 113.90752214 56.13478269 113.90166473 49.98596001 C113.90032757 47.36760884 113.90197826 44.74925444 113.90662384 42.13090706 C113.91168614 38.47471544 113.90398248 34.81877081 113.89282227 31.16259766 C113.89687073 30.07313843 113.90091919 28.9836792 113.90509033 27.86120605 C113.89945068 26.8671022 113.89381104 25.87299835 113.88800049 24.84877014 C113.88724644 23.98396058 113.88649239 23.11915102 113.88571548 22.22813511 C113.77123315 19.73263282 113.77123315 19.73263282 111.6340332 17.02172852 C109.45631899 16.56943051 109.45631899 16.56943051 106.88928223 16.64750671 C105.88813889 16.6404924 104.88699554 16.63347809 103.85551453 16.62625122 C102.20190666 16.63771683 102.20190666 16.63771683 100.51489258 16.64941406 C99.35713821 16.6457634 98.19938385 16.64211273 97.00654602 16.63835144 C93.16347781 16.63021759 89.32082749 16.64387998 85.4777832 16.65844727 C82.81741744 16.65896553 80.15706775 16.65850168 77.4967041 16.65693665 C71.91466236 16.65605313 66.33274194 16.66714584 60.75073242 16.68554688 C54.29209712 16.70671545 47.8336396 16.71022475 41.37497663 16.70398492 C35.16848364 16.69829512 28.96205341 16.70393236 22.75556946 16.71515846 C20.11127475 16.71901879 17.46697467 16.72015525 14.82267761 16.71857262 C11.13273794 16.71820343 7.44307247 16.73078118 3.75317383 16.74707031 C2.09956596 16.74335419 2.09956596 16.74335419 0.41255188 16.73956299 C-0.58859146 16.7466478 -1.5897348 16.7537326 -2.62121582 16.7610321 C-3.49432152 16.76308497 -4.36742722 16.76513784 -5.26699066 16.76725292 C-7.58476649 16.82928713 -7.58476649 16.82928713 -9.3659668 19.02172852 Z " fill="#B197FC" transform="translate(31.365966796875,-1.021728515625)"/>
<path d="M0 0 C3.44092962 2.51094864 4.50574297 5.11493171 6 9 C6.69996094 9.67482422 6.69996094 9.67482422 7.4140625 10.36328125 C9.29365819 12.30306103 10.18136145 14.17614334 11.3125 16.625 C13.42999095 21.01351599 15.8863323 24.94626997 18.640625 28.95703125 C23 35.50862069 23 35.50862069 23 39 C23.66 39 24.32 39 25 39 C26.18203738 41.20124308 27.34540108 43.40941829 28.5 45.625 C28.83386719 46.24246094 29.16773438 46.85992187 29.51171875 47.49609375 C31.59026448 51.52592731 32.62955869 54.48412708 32 59 C30.85508728 62.12809753 30.85508728 62.12809753 29 65 C26.26319885 65.79878235 26.26319885 65.79878235 22.91235352 65.86450195 C21.02542282 65.92028915 21.02542282 65.92028915 19.10037231 65.97720337 C17.73359044 65.98626218 16.36679799 65.99383421 15 66 C13.62772585 66.02491269 12.25548099 66.05149095 10.88327026 66.0796814 C6.38951935 66.15735985 1.89667156 66.16587661 -2.59765625 66.16796875 C-4.24718757 66.1711913 -5.89671863 66.17455607 -7.54624939 66.17805481 C-10.97249007 66.18398872 -14.39870572 66.18590019 -17.82495117 66.18530273 C-22.20948517 66.18520028 -26.59386025 66.19896287 -30.97835636 66.21607494 C-34.37127929 66.22718807 -37.76416332 66.22922232 -41.15710258 66.22869301 C-42.77459712 66.22986989 -44.39209277 66.23427527 -46.00956917 66.24202538 C-48.26308673 66.25183142 -50.51625207 66.24894727 -52.76977539 66.24291992 C-54.04881241 66.24434494 -55.32784943 66.24576996 -56.64564514 66.24723816 C-60.57076625 65.95793075 -63.42407524 65.05061651 -66.6875 62.875 C-68.80000328 59.85713817 -69.23618212 56.58406851 -70 53 C-69.34 53 -68.68 53 -68 53 C-68 52.01 -68 51.02 -68 50 C-67.34 50 -66.68 50 -66 50 C-66 49.01 -66 48.02 -66 47 C-64.66666667 45.66666667 -63.33333333 44.33333333 -62 43 C-61.2127322 40.8618034 -61.2127322 40.8618034 -61 39 C-60.34 39 -59.68 39 -59 39 C-58.77183594 38.48695312 -58.54367188 37.97390625 -58.30859375 37.4453125 C-56.49526058 34.0568153 -54.29423472 30.99878453 -52.0625 27.875 C-51.61970703 27.24207031 -51.17691406 26.60914062 -50.72070312 25.95703125 C-48.64273551 23.03982485 -47.00897408 21.00598272 -44 19 C-36.86206897 19.11330049 -36.86206897 19.11330049 -33.8125 22.25 C-33.214375 23.1575 -32.61625 24.065 -32 25 C-30.35 26.65 -28.7 28.3 -27 30 C-23.535 23.565 -23.535 23.565 -20 17 C-19.34 17 -18.68 17 -18 17 C-17.9175 16.34 -17.835 15.68 -17.75 15 C-16.37988193 9.51952773 -14.44583396 5.28518574 -10.1875 1.5 C-6.40833961 -0.27842842 -4.12815089 -0.61157791 0 0 Z " fill="#B197FC" transform="translate(102,58)"/>
<path d="M0 0 C3.35663567 2.7541626 4.2714345 5.33709061 4.9375 9.5 C5.29961651 14.56963113 3.66736934 16.98526205 0.5 20.8125 C-1 22 -1 22 -4 22 C-4 22.66 -4 23.32 -4 24 C-11.35306554 22.60887949 -11.35306554 22.60887949 -14.125 20 C-16.61003 16.023952 -17.33559739 12.67439221 -17 8 C-15.80863832 4.29276278 -14.04190813 1.69460542 -10.75 -0.5 C-6.95328465 -1.19031188 -3.69922974 -1.16858513 0 0 Z " fill="#B197FC" transform="translate(56,33)"/>
</svg>
