<?xml version="1.0" encoding="UTF-8"?>
<svg version="1.1" xmlns="http://www.w3.org/2000/svg" width="163" height="156">
<path d="M0 0 C1.10857613 -0.0076664 1.10857613 -0.0076664 2.23954773 -0.01548767 C4.66840853 -0.02932069 7.09698353 -0.02843155 9.52587891 -0.02612305 C11.22449854 -0.0300137 12.9231172 -0.03434913 14.62173462 -0.03910828 C18.17737993 -0.04655716 21.73292593 -0.04628908 25.28857422 -0.04101562 C29.83007591 -0.03522561 34.37116916 -0.05214702 38.91260338 -0.0753603 C42.41977285 -0.0901408 45.92684496 -0.09096343 49.43404007 -0.08785057 C51.10767042 -0.08836171 52.78130652 -0.09356025 54.45490646 -0.10366249 C56.8022335 -0.11609255 59.14877787 -0.10919649 61.49609375 -0.09765625 C62.17791214 -0.10529999 62.85973053 -0.11294373 63.56221008 -0.12081909 C69.33010225 -0.05859702 74.81751628 1.23363682 79.40087891 4.88793945 C79.84689453 5.44868164 80.29291016 6.00942383 80.75244141 6.5871582 C81.44466797 7.41666992 81.44466797 7.41666992 82.15087891 8.26293945 C85.21654816 13.29102756 85.67235718 18.31963027 85.65209961 24.08081055 C85.65721054 24.83936844 85.66232147 25.59792633 85.66758728 26.37947083 C85.68142407 28.87326063 85.68053087 31.3667722 85.67822266 33.8605957 C85.68211309 35.6040558 85.68644848 37.34751496 85.69120789 39.0909729 C85.69865757 42.74077429 85.69838809 46.39047892 85.69311523 50.0402832 C85.68732499 54.70284909 85.70424684 59.36501716 85.72745991 64.02751732 C85.74223785 67.62733247 85.74306339 71.22705274 85.73995018 74.82689285 C85.74046144 76.54518038 85.74566233 78.26347349 85.7557621 79.98173141 C85.76818717 82.39131787 85.76129895 84.80014129 85.74975586 87.2097168 C85.7573996 87.91023666 85.76504333 88.61075653 85.7729187 89.33250427 C85.71166092 95.15797395 84.4584504 100.66457913 80.76416016 105.2980957 C80.20341797 105.74411133 79.64267578 106.19012695 79.06494141 106.6496582 C78.23542969 107.34188477 78.23542969 107.34188477 77.38916016 108.0480957 C72.42062319 111.07745611 67.45105202 111.56989152 61.75488281 111.54931641 C61.01583206 111.55442734 60.27678131 111.55953827 59.51533508 111.56480408 C57.08647428 111.5786371 54.65789928 111.57774795 52.22900391 111.57543945 C50.53038428 111.57933011 48.83176561 111.58366554 47.13314819 111.58842468 C43.57750288 111.59587357 40.02195688 111.59560549 36.46630859 111.59033203 C31.9248069 111.58454202 27.38371365 111.60146343 22.84227943 111.6246767 C19.33510996 111.6394572 15.82803785 111.64027984 12.32084274 111.63716698 C10.64721239 111.63767811 8.97357629 111.64287666 7.29997635 111.6529789 C4.95264931 111.66540896 2.60610494 111.65851289 0.25878906 111.64697266 C-0.42302933 111.65461639 -1.10484772 111.66226013 -1.80732727 111.6701355 C-7.57521944 111.60791343 -13.06263346 110.31567959 -17.64599609 106.66137695 C-18.09201172 106.10063477 -18.53802734 105.53989258 -18.99755859 104.9621582 C-19.45904297 104.40915039 -19.92052734 103.85614258 -20.39599609 103.28637695 C-23.46166535 98.25828885 -23.91747437 93.22968614 -23.8972168 87.46850586 C-23.90232773 86.70994797 -23.90743866 85.95139008 -23.91270447 85.16984558 C-23.92654126 82.67605577 -23.92564806 80.18254421 -23.92333984 77.6887207 C-23.92723028 75.94526061 -23.93156566 74.20180145 -23.93632507 72.45834351 C-23.94377476 68.80854212 -23.94350528 65.15883749 -23.93823242 61.5090332 C-23.93244218 56.84646732 -23.94936403 52.18429925 -23.9725771 47.52179909 C-23.98735504 43.92198394 -23.98818057 40.32226367 -23.98506737 36.72242355 C-23.98557863 35.00413603 -23.99077951 33.28584291 -24.00087929 31.56758499 C-24.01330435 29.15799854 -24.00641613 26.74917511 -23.99487305 24.33959961 C-24.00251678 23.63907974 -24.01016052 22.93855988 -24.01803589 22.21681213 C-23.95677811 16.39134246 -22.70356758 10.88473727 -19.00927734 6.2512207 C-18.44853516 5.80520508 -17.88779297 5.35918945 -17.31005859 4.8996582 C-16.75705078 4.43817383 -16.20404297 3.97668945 -15.63427734 3.5012207 C-10.66574038 0.4718603 -5.6961692 -0.02057511 0 0 Z M-9.62255859 16.2746582 C-9.72287739 18.73371042 -9.7587404 21.16469248 -9.75195312 23.62426758 C-9.75370544 24.39333939 -9.75545776 25.16241119 -9.75726318 25.95478821 C-9.76168199 28.50935083 -9.75874362 31.06384481 -9.75537109 33.6184082 C-9.75604412 35.38578301 -9.75701414 37.15315773 -9.75827026 38.92053223 C-9.75974728 42.62956623 -9.75759258 46.3385762 -9.75292969 50.04760742 C-9.7472324 54.81288313 -9.75051138 59.57810252 -9.75650215 64.34337616 C-9.76010768 67.99436877 -9.75896922 71.64534793 -9.75637436 75.29634094 C-9.75570507 77.0538992 -9.75653359 78.81145865 -9.75885391 80.5690155 C-9.7613803 83.02105975 -9.75754006 85.47301151 -9.75195312 87.92504883 C-9.75397736 88.65859085 -9.75600159 89.39213287 -9.75808716 90.14790344 C-10.03831217 93.49603204 -10.03831217 93.49603204 -8.62255859 96.2746582 C-6.16350638 96.374977 -3.73252432 96.41084 -1.27294922 96.40405273 C-0.50387741 96.40580505 0.2651944 96.40755737 1.05757141 96.40936279 C3.61213404 96.4137816 6.16662802 96.41084323 8.72119141 96.4074707 C10.48856622 96.40814373 12.25594094 96.40911375 14.02331543 96.41036987 C17.73234944 96.41184688 21.44135941 96.40969219 25.15039062 96.4050293 C29.91566633 96.39933201 34.68088572 96.40261099 39.44615936 96.40860176 C43.09715198 96.41220729 46.74813114 96.41106883 50.39912415 96.40847397 C52.1566824 96.40780468 53.91424186 96.4086332 55.67179871 96.41095352 C58.12384295 96.41347991 60.57579471 96.40963967 63.02783203 96.40405273 C64.12814507 96.40708908 64.12814507 96.40708908 65.25068665 96.41018677 C68.59881524 96.69041178 68.59881524 96.69041178 71.37744141 95.2746582 C71.47776021 92.81560599 71.51362321 90.38462393 71.50683594 87.92504883 C71.50858826 87.15597702 71.51034058 86.38690521 71.512146 85.5945282 C71.5165648 83.03996557 71.51362643 80.48547159 71.51025391 77.9309082 C71.51092694 76.16353339 71.51189696 74.39615867 71.51315308 72.62878418 C71.51463009 68.91975017 71.51247539 65.2107402 71.5078125 61.50170898 C71.50211521 56.73643328 71.5053942 51.97121389 71.51138496 47.20594025 C71.51499049 43.55494763 71.51385203 39.90396847 71.51125717 36.25297546 C71.51058788 34.49541721 71.51141641 32.73785775 71.51373672 30.9803009 C71.51626311 28.52825666 71.51242287 26.0763049 71.50683594 23.62426758 C71.50987228 22.52395454 71.50987228 22.52395454 71.51296997 21.40141296 C71.79319498 18.05328437 71.79319498 18.05328437 70.37744141 15.2746582 C67.91838919 15.1743394 65.48740713 15.1384764 63.02783203 15.14526367 C62.25876022 15.14351135 61.48968842 15.14175903 60.6973114 15.13995361 C58.14274878 15.13553481 55.5882548 15.13847318 53.03369141 15.1418457 C51.2663166 15.14117267 49.49894188 15.14020265 47.73156738 15.13894653 C44.02253338 15.13746952 40.31352341 15.13962422 36.60449219 15.14428711 C31.83921648 15.1499844 27.07399709 15.14670541 22.30872345 15.14071465 C18.65773084 15.13710912 15.00675168 15.13824758 11.35575867 15.14084244 C9.59820041 15.14151173 7.84064096 15.1406832 6.08308411 15.13836288 C3.63103986 15.1358365 1.1790881 15.13967674 -1.27294922 15.14526367 C-2.37326225 15.14222733 -2.37326225 15.14222733 -3.49580383 15.13912964 C-6.84393243 14.85890463 -6.84393243 14.85890463 -9.62255859 16.2746582 Z " fill="#B197FC" transform="translate(30.62255859375,20.725341796875)"/>
<path d="M0 0 C2.80859375 1.359375 2.80859375 1.359375 4.80859375 4.359375 C5.07601929 7.46458435 5.07601929 7.46458435 5.09912109 11.33764648 C5.10583832 12.04367004 5.11255554 12.7496936 5.11947632 13.47711182 C5.13847846 15.81163565 5.14238146 18.14587239 5.14453125 20.48046875 C5.15095722 22.10327778 5.15768543 23.72608564 5.16470337 25.34889221 C5.17668135 28.75093268 5.18038362 32.15287157 5.17919922 35.55493164 C5.1789959 39.91430011 5.20630854 44.2730176 5.24074364 48.63223171 C5.26297994 51.98398328 5.26703779 55.33557731 5.26597977 58.6873951 C5.26834026 60.29456897 5.27718904 61.9017469 5.2926445 63.50884819 C5.31224124 65.75693256 5.30649302 68.00360184 5.29443359 70.25170898 C5.29728363 71.53061508 5.30013367 72.80952118 5.30307007 74.12718201 C4.72269929 77.92083255 3.82513766 79.06979266 0.80859375 81.359375 C-1.67578125 82.2722168 -1.67578125 82.2722168 -4.19140625 82.359375 C-6.33203125 81.34301758 -6.33203125 81.34301758 -8.44140625 79.75390625 C-9.21484375 79.18220703 -9.98828125 78.61050781 -10.78515625 78.02148438 C-11.57921875 77.41111328 -12.37328125 76.80074219 -13.19140625 76.171875 C-13.98546875 75.58083984 -14.77953125 74.98980469 -15.59765625 74.38085938 C-17.13415933 73.23232333 -18.65985037 72.06914703 -20.1730957 70.89013672 C-22.30708751 69.22099433 -22.30708751 69.22099433 -25.234375 67.48046875 C-27.85008935 64.64547296 -27.71113102 62.72155682 -27.63085938 58.96484375 C-27.58896484 58.18753906 -27.54707031 57.41023438 -27.50390625 56.609375 C-27.48134766 55.81660156 -27.45878906 55.02382812 -27.43554688 54.20703125 C-27.37681096 52.2569988 -27.28713279 50.30794188 -27.19140625 48.359375 C-20.62040047 51.86391142 -15.38418364 55.85553689 -9.19140625 60.359375 C-9.19140625 47.489375 -9.19140625 34.619375 -9.19140625 21.359375 C-13.81140625 24.659375 -18.43140625 27.959375 -23.19140625 31.359375 C-24.51140625 32.019375 -25.83140625 32.679375 -27.19140625 33.359375 C-27.95906912 27.70360241 -28.69280512 21.94633603 -27.19140625 16.359375 C-23.95858806 12.35108329 -20.38984506 9.95535326 -15.96191406 7.40722656 C-14.27800455 6.41062705 -12.67938428 5.27391843 -11.08984375 4.1328125 C-4.13436801 -0.82990986 -4.13436801 -0.82990986 0 0 Z " fill="#B197FC" transform="translate(157.19140625,35.640625)"/>
</svg>
